<svg width="71" height="18" viewBox="0 0 71 18" fill="none" xmlns="http://www.w3.org/2000/svg">
<path d="M22.6305 12.3649C22.5679 12.3649 22.5146 12.343 22.4708 12.2991C22.4269 12.2553 22.405 12.202 22.405 12.1394V6.01287C22.405 5.94396 22.4269 5.89072 22.4708 5.85313C22.5146 5.80928 22.5679 5.78735 22.6305 5.78735H23.5138C23.5827 5.78735 23.6359 5.80928 23.6735 5.85313C23.7174 5.89072 23.7393 5.94396 23.7393 6.01287V11.2373H26.718C26.7869 11.2373 26.8433 11.2593 26.8871 11.3031C26.931 11.347 26.9529 11.4002 26.9529 11.4628V12.1394C26.9529 12.202 26.931 12.2553 26.8871 12.2991C26.8433 12.343 26.7869 12.3649 26.718 12.3649H22.6305ZM29.171 12.4589C28.8515 12.4589 28.5571 12.3962 28.2877 12.2709C28.0246 12.1394 27.8148 11.964 27.6582 11.7447C27.5078 11.5255 27.4326 11.2843 27.4326 11.0212C27.4326 10.5952 27.6049 10.2507 27.9494 9.9876C28.294 9.72449 28.7669 9.54596 29.3683 9.45199L30.6556 9.26406V9.06674C30.6556 8.79737 30.5867 8.59378 30.4489 8.45596C30.3111 8.31815 30.0918 8.24924 29.7912 8.24924C29.5844 8.24924 29.4184 8.28683 29.2931 8.362C29.1679 8.43717 29.0645 8.51548 28.9831 8.59691C28.9079 8.67208 28.8578 8.7222 28.8327 8.74726C28.8077 8.82243 28.7607 8.86001 28.6918 8.86001H27.9588C27.9025 8.86001 27.8523 8.84122 27.8085 8.80364C27.7709 8.76605 27.7521 8.71593 27.7521 8.65329C27.7584 8.49668 27.8336 8.32128 27.9776 8.12709C28.128 7.92663 28.3566 7.75436 28.6636 7.61028C28.9705 7.45993 29.3495 7.38476 29.8006 7.38476C30.5397 7.38476 31.0785 7.55077 31.4168 7.88278C31.755 8.21479 31.9242 8.65016 31.9242 9.18889V12.1394C31.9242 12.202 31.9022 12.2553 31.8584 12.2991C31.8208 12.343 31.7676 12.3649 31.6987 12.3649H30.9187C30.8561 12.3649 30.8029 12.343 30.759 12.2991C30.7151 12.2553 30.6932 12.202 30.6932 12.1394V11.7729C30.5554 11.9734 30.3612 12.1394 30.1106 12.2709C29.8601 12.3962 29.5469 12.4589 29.171 12.4589ZM29.4905 11.5568C29.835 11.5568 30.1169 11.4441 30.3362 11.2185C30.5554 10.993 30.665 10.6673 30.665 10.2413V10.0534L29.7254 10.2037C29.005 10.3165 28.6448 10.5577 28.6448 10.9272C28.6448 11.1277 28.7262 11.2843 28.8891 11.3971C29.0582 11.5036 29.2587 11.5568 29.4905 11.5568ZM34.9899 12.4589C34.5138 12.4589 34.1161 12.3868 33.7966 12.2428C33.4771 12.0987 33.239 11.9327 33.0824 11.7447C32.9321 11.5505 32.8569 11.3845 32.8569 11.2467C32.8569 11.1841 32.8757 11.134 32.9133 11.0964C32.9571 11.0588 33.0073 11.04 33.0636 11.04H33.8342C33.8843 11.04 33.9281 11.0651 33.9657 11.1152C33.997 11.1402 34.0659 11.1997 34.1724 11.2937C34.2852 11.3877 34.4105 11.4628 34.5483 11.5192C34.6924 11.5693 34.849 11.5944 35.0181 11.5944C35.2687 11.5944 35.4723 11.5474 35.6289 11.4535C35.7855 11.3532 35.8638 11.2123 35.8638 11.0306C35.8638 10.9053 35.8262 10.8051 35.751 10.7299C35.6821 10.6485 35.5537 10.5764 35.3658 10.5138C35.1841 10.4449 34.9085 10.3697 34.5389 10.2883C34.0064 10.1755 33.6118 10.0033 33.3549 9.77148C33.1044 9.5397 32.9791 9.23274 32.9791 8.85062C32.9791 8.60004 33.0542 8.36513 33.2046 8.14588C33.3549 7.92036 33.5773 7.7387 33.8717 7.60088C34.1724 7.4568 34.5295 7.38476 34.9429 7.38476C35.3689 7.38476 35.7354 7.45367 36.0423 7.59149C36.3493 7.72304 36.5811 7.88278 36.7377 8.07071C36.9006 8.25864 36.982 8.42464 36.982 8.56872C36.982 8.6251 36.9601 8.67522 36.9162 8.71907C36.8786 8.75665 36.8316 8.77545 36.7753 8.77545H36.0705C36.0016 8.77545 35.9484 8.75039 35.9108 8.70027C35.8669 8.66895 35.7949 8.61257 35.6947 8.53114C35.6007 8.44344 35.4942 8.37453 35.3752 8.32441C35.2562 8.2743 35.1121 8.24924 34.9429 8.24924C34.7112 8.24924 34.5326 8.29936 34.4073 8.39959C34.2821 8.49981 34.2194 8.63137 34.2194 8.79424C34.2194 8.907 34.2476 9.00096 34.304 9.07613C34.3666 9.15131 34.4888 9.22335 34.6704 9.29225C34.8521 9.3549 35.1246 9.42067 35.4879 9.48958C36.6155 9.70883 37.1793 10.2006 37.1793 10.9648C37.1793 11.4096 36.9851 11.7698 36.5967 12.0454C36.2146 12.3211 35.679 12.4589 34.9899 12.4589ZM38.3746 12.3649C38.3119 12.3649 38.2587 12.343 38.2148 12.2991C38.171 12.2553 38.1491 12.202 38.1491 12.1394V5.91891C38.1491 5.85 38.171 5.79675 38.2148 5.75917C38.2587 5.71531 38.3119 5.69339 38.3746 5.69339H39.1639C39.2328 5.69339 39.286 5.71531 39.3236 5.75917C39.3675 5.79675 39.3894 5.85 39.3894 5.91891V12.1394C39.3894 12.202 39.3675 12.2553 39.3236 12.2991C39.286 12.343 39.2328 12.3649 39.1639 12.3649H38.3746ZM42.7498 12.4589C42.0482 12.4589 41.4907 12.2584 41.0773 11.8575C40.6701 11.4566 40.4539 10.8865 40.4289 10.1473L40.4195 9.91242C40.4195 9.12938 40.6231 8.51234 41.0303 8.06131C41.4437 7.61028 42.0138 7.38476 42.7404 7.38476C43.4859 7.38476 44.0591 7.61028 44.46 8.06131C44.8672 8.51234 45.0708 9.11372 45.0708 9.86544V10.0628C45.0708 10.1254 45.0488 10.1787 45.005 10.2225C44.9611 10.2664 44.9048 10.2883 44.8359 10.2883H41.7162V10.3635C41.7287 10.7143 41.8227 11.0056 41.9981 11.2373C42.1798 11.4628 42.4272 11.5756 42.7404 11.5756C43.0975 11.5756 43.3888 11.4315 43.6143 11.1434C43.6707 11.0745 43.7145 11.0337 43.7459 11.0212C43.7772 11.0024 43.8304 10.993 43.9056 10.993H44.7325C44.7889 10.993 44.8359 11.0087 44.8734 11.04C44.9173 11.0713 44.9392 11.1152 44.9392 11.1716C44.9392 11.3219 44.8484 11.5004 44.6667 11.7072C44.4913 11.9076 44.2376 12.083 43.9056 12.2334C43.5736 12.3837 43.1883 12.4589 42.7498 12.4589ZM43.7741 9.48958V9.47079C43.7741 9.10119 43.6801 8.80677 43.4922 8.58752C43.3105 8.362 43.0599 8.24924 42.7404 8.24924C42.421 8.24924 42.1704 8.362 41.9887 8.58752C41.807 8.80677 41.7162 9.10119 41.7162 9.47079V9.48958H43.7741ZM47.9285 12.4589C47.4524 12.4589 47.0546 12.3868 46.7351 12.2428C46.4156 12.0987 46.1776 11.9327 46.021 11.7447C45.8706 11.5505 45.7955 11.3845 45.7955 11.2467C45.7955 11.1841 45.8143 11.134 45.8519 11.0964C45.8957 11.0588 45.9458 11.04 46.0022 11.04H46.7727C46.8228 11.04 46.8667 11.0651 46.9043 11.1152C46.9356 11.1402 47.0045 11.1997 47.111 11.2937C47.2237 11.3877 47.349 11.4628 47.4868 11.5192C47.6309 11.5693 47.7875 11.5944 47.9567 11.5944C48.2072 11.5944 48.4108 11.5474 48.5674 11.4535C48.7241 11.3532 48.8024 11.2123 48.8024 11.0306C48.8024 10.9053 48.7648 10.8051 48.6896 10.7299C48.6207 10.6485 48.4923 10.5764 48.3043 10.5138C48.1227 10.4449 47.847 10.3697 47.4775 10.2883C46.945 10.1755 46.5503 10.0033 46.2935 9.77148C46.0429 9.5397 45.9176 9.23274 45.9176 8.85062C45.9176 8.60004 45.9928 8.36513 46.1431 8.14588C46.2935 7.92036 46.5159 7.7387 46.8103 7.60088C47.111 7.4568 47.4681 7.38476 47.8815 7.38476C48.3075 7.38476 48.6739 7.45367 48.9809 7.59149C49.2878 7.72304 49.5196 7.88278 49.6762 8.07071C49.8391 8.25864 49.9205 8.42464 49.9205 8.56872C49.9205 8.6251 49.8986 8.67522 49.8548 8.71907C49.8172 8.75665 49.7702 8.77545 49.7138 8.77545H49.0091C48.9402 8.77545 48.8869 8.75039 48.8493 8.70027C48.8055 8.66895 48.7335 8.61257 48.6332 8.53114C48.5393 8.44344 48.4328 8.37453 48.3137 8.32441C48.1947 8.2743 48.0506 8.24924 47.8815 8.24924C47.6497 8.24924 47.4712 8.29936 47.3459 8.39959C47.2206 8.49981 47.158 8.63137 47.158 8.79424C47.158 8.907 47.1862 9.00096 47.2425 9.07613C47.3052 9.15131 47.4273 9.22335 47.609 9.29225C47.7907 9.3549 48.0632 9.42067 48.4265 9.48958C49.5541 9.70883 50.1179 10.2006 50.1179 10.9648C50.1179 11.4096 49.9237 11.7698 49.5353 12.0454C49.1532 12.3211 48.6176 12.4589 47.9285 12.4589ZM52.9763 12.3649C52.8698 12.3649 52.7821 12.3399 52.7132 12.2897C52.6506 12.2334 52.6067 12.1645 52.5817 12.083L50.6836 6.06925L50.6648 5.98468C50.6648 5.93457 50.6836 5.89072 50.7212 5.85313C50.765 5.80928 50.8151 5.78735 50.8715 5.78735H52.1024C52.1964 5.78735 52.2716 5.81554 52.328 5.87192C52.3906 5.92204 52.4313 5.97842 52.4501 6.04106L53.728 10.2883L55.0154 6.04106C55.0342 5.97215 55.0717 5.91264 55.1281 5.86253C55.1908 5.81241 55.2691 5.78735 55.363 5.78735H56.594C56.6504 5.78735 56.6973 5.80928 56.7349 5.85313C56.7725 5.89072 56.7913 5.93457 56.7913 5.98468C56.7913 6.016 56.7882 6.04419 56.7819 6.06925L54.8744 12.083C54.8556 12.1645 54.8118 12.2334 54.7429 12.2897C54.6802 12.3399 54.5957 12.3649 54.4892 12.3649H52.9763ZM57.8838 12.3649C57.8212 12.3649 57.7648 12.343 57.7147 12.2991C57.6708 12.249 57.6489 12.1926 57.6489 12.13V6.03166C57.6489 5.96276 57.6708 5.90638 57.7147 5.86253C57.7585 5.81241 57.8149 5.78735 57.8838 5.78735H60.543C61.3574 5.78735 61.9963 5.97215 62.4599 6.34175C62.9235 6.71135 63.1552 7.25321 63.1552 7.96735C63.1552 8.68148 62.9235 9.21708 62.4599 9.57415C61.9963 9.92495 61.3574 10.1004 60.543 10.1004H59.4718V12.13C59.4718 12.1926 59.4499 12.249 59.406 12.2991C59.3622 12.343 59.3058 12.3649 59.2369 12.3649H57.8838ZM60.496 8.75665C60.7529 8.75665 60.9533 8.69088 61.0974 8.55933C61.2477 8.42151 61.3229 8.22105 61.3229 7.95795C61.3229 7.71364 61.254 7.51631 61.1162 7.36597C60.9846 7.21562 60.7779 7.14045 60.496 7.14045H59.4436V8.75665H60.496ZM64.2613 12.3649C64.1987 12.3649 64.1423 12.343 64.0922 12.2991C64.0483 12.249 64.0264 12.1926 64.0264 12.13V6.03166C64.0264 5.96276 64.0483 5.90638 64.0922 5.86253C64.136 5.81241 64.1924 5.78735 64.2613 5.78735H65.3231C65.4672 5.78735 65.5737 5.84687 65.6426 5.96589L67.8602 9.47079V6.03166C67.8602 5.96276 67.8821 5.90638 67.926 5.86253C67.9698 5.81241 68.0262 5.78735 68.0951 5.78735H69.2884C69.3574 5.78735 69.4137 5.81241 69.4576 5.86253C69.5014 5.90638 69.5234 5.96276 69.5234 6.03166V12.1206C69.5234 12.1895 69.5014 12.249 69.4576 12.2991C69.4137 12.343 69.3574 12.3649 69.2884 12.3649H68.2266C68.0826 12.3649 67.9761 12.3054 67.9072 12.1864L65.699 8.82243V12.13C65.699 12.1989 65.6739 12.2553 65.6238 12.2991C65.58 12.343 65.5236 12.3649 65.4547 12.3649H64.2613Z" fill="#0B132A"/>
<path d="M15.1635 6.90337L15.1533 6.89314C15.1524 6.89257 15.1518 6.89181 15.1514 6.89092L8.75192 0.491318L2.35254 6.89076C2.3518 6.8915 2.35065 6.89298 2.35065 6.89298L2.34008 6.90321C1.36153 7.88726 0.739981 9.17017 0.574241 10.548C0.408502 11.9259 0.708085 13.3196 1.42536 14.5077C2.14265 15.6958 3.23646 16.61 4.53293 17.1049C5.8294 17.5999 7.25412 17.6473 8.58061 17.2395C8.69223 17.2054 8.81153 17.2054 8.92317 17.2395C10.2496 17.6472 11.6742 17.5997 12.9706 17.1047C14.267 16.6096 15.3607 15.6955 16.0779 14.5075C16.7951 13.3195 17.0948 11.9259 16.9291 10.5481C16.7634 9.17033 16.1419 7.88743 15.1635 6.90337ZM4.62808 11.1234C4.59692 11.1545 4.57222 11.1916 4.55537 11.2322C4.53851 11.2729 4.52984 11.3165 4.52984 11.3605C4.54123 12.49 4.86043 13.595 5.45309 14.5565C5.46655 14.5783 5.47277 14.6039 5.47087 14.6294C5.46896 14.6549 5.45902 14.6792 5.44246 14.6988C5.42591 14.7184 5.40359 14.7322 5.3787 14.7383C5.35381 14.7444 5.32763 14.7425 5.30389 14.7329C4.85835 14.5455 4.45359 14.273 4.11226 13.9308C3.41276 13.2312 3.01951 12.2825 3.01888 11.2932C3.01824 10.3039 3.41027 9.35468 4.10888 8.6542L8.75192 4.01159L13.3947 8.6542C14.0934 9.3546 14.4856 10.3038 14.4849 11.2932C14.4844 12.2825 14.091 13.2312 13.3915 13.9308C13.0502 14.273 12.6454 14.5455 12.2 14.7329C12.1762 14.7425 12.15 14.7444 12.1251 14.7383C12.1002 14.7322 12.0779 14.7183 12.0613 14.6988C12.0448 14.6792 12.0348 14.6549 12.0329 14.6293C12.031 14.6038 12.0372 14.5783 12.0507 14.5564C12.6434 13.595 12.9628 12.49 12.9744 11.3605C12.9744 11.3165 12.9656 11.2729 12.9487 11.2321C12.9317 11.1914 12.907 11.1545 12.8757 11.1233L10.6796 8.79395C10.6577 8.77569 10.6302 8.76569 10.6017 8.76569C10.5733 8.76569 10.5457 8.77569 10.5239 8.79395C10.502 8.81213 10.4873 8.8375 10.4822 8.86551C10.477 8.89352 10.4819 8.92236 10.496 8.94715C11.3489 10.4906 10.6154 12.7076 9.39235 13.9308L9.3859 13.9373C9.21709 14.1043 8.98919 14.1979 8.75175 14.1978C8.51428 14.1977 8.28644 14.104 8.11775 13.9369L8.11181 13.9308C6.88827 12.7076 6.15522 10.4909 7.00827 8.94748C7.0223 8.92269 7.02719 8.89385 7.02208 8.86584C7.01698 8.83783 7.00222 8.81246 6.98036 8.79428C6.9585 8.77602 6.93095 8.76602 6.90248 8.76602C6.87401 8.76602 6.84645 8.77602 6.82459 8.79428L4.62808 11.1234Z" fill="#F53838"/>
</svg>
